<svg width="135" height="148" viewBox="0 0 135 148" fill="none" xmlns="http://www.w3.org/2000/svg">
<g clip-path="url(#clip0_226_273)">
<path d="M52.3315 64.2814L22.0149 17.5869C11.5857 27.1059 4.39675 39.65 1.45598 53.4606C-1.48479 67.2712 -0.0299852 81.6559 5.61645 94.598L52.3315 64.2814Z" fill="#21100B"/>
<path d="M117.412 22.0149C107.893 11.5857 95.3493 4.39675 81.5387 1.45598C67.7281 -1.48479 53.3435 -0.0299852 40.4014 5.61645L70.7179 52.3315L117.412 22.0149Z" fill="#21100B"/>
<path d="M112.986 117.412C123.415 107.893 130.604 95.3493 133.544 81.5387C136.485 67.7281 135.03 53.3435 129.384 40.4014L82.6689 70.718L112.986 117.412Z" fill="#21100B"/>
<path d="M97.8572 144.573C98.6156 145.618 99.374 146.623 100.153 147.668L102.9 142.134L64.2609 82.6895L17.5664 113.006L21.1946 117.29L31.1566 112.74C45.8332 122.989 65.2448 127.355 82.2582 123.604L97.8572 144.573ZM74.6124 114.789H73.7925H72.9316V115.035V114.81H72.0707V114.953L71.8657 110.854H70.9843C70.9843 112.207 70.9843 113.559 70.9843 114.953H70.1643H69.2829H68.4015H67.5406V115.158V112.924H66.6592L66.4747 114.974H65.6753H64.7939V115.138V114.789H63.9124H63.0515V114.933L63.564 110.833H62.6826L62.0881 114.83L61.2887 114.707L60.4278 114.584V114.789V114.564L59.5669 114.42L58.7059 114.236V114.359L59.1364 112.309L58.2755 112.125C58.1115 112.781 57.927 113.436 57.763 114.174L57.0046 113.99L56.9021 114.174V113.99L56.0617 113.764L55.9592 113.969V113.744L55.0983 113.539V113.662V113.518L54.2579 113.293L54.1349 113.498L55.3853 109.398L54.5448 109.132L53.2535 112.965L52.495 112.719L51.6751 112.412L50.8347 112.125L50.7322 112.268V112.084L49.9123 111.776L49.8098 111.94V111.817L50.5887 109.87L49.7688 109.542L48.9079 111.387L47.719 110.69L47.596 110.854V110.649L46.7966 110.3V110.423V110.28L45.9972 109.911L45.1977 109.562L45.0338 109.747L47.0836 105.955L46.3046 105.524L44.3778 109.07L43.6194 108.64L43.4554 108.804L43.5579 108.619L42.7995 108.189V108.066L42.0206 107.636V107.759V107.595L41.2621 107.164L41.1596 107.267V107.144L41.9386 105.565L62.1291 92.467L75.3298 112.781V114.441L74.6124 114.789Z" fill="#21100B"/>
</g>
<defs>
<clipPath id="clip0_226_273">
<rect width="135" height="147.668" fill="white"/>
</clipPath>
</defs>
</svg>
