<svg width="119" height="131" viewBox="0 0 119 131" fill="none" xmlns="http://www.w3.org/2000/svg">
<g clip-path="url(#clip0_226_272)">
<path d="M46.0746 56.5963L19.3825 15.4844C10.2002 23.8654 3.87075 34.9097 1.28157 47.0692C-1.30762 59.2287 -0.0267397 71.8935 4.94463 83.2884L46.0746 56.5963Z" fill="#FFECC0"/>
<path d="M103.375 19.3825C94.9943 10.2002 83.9499 3.87075 71.7905 1.28157C59.631 -1.30762 46.9661 -0.0267397 35.5713 4.94463L62.2634 46.0746L103.375 19.3825Z" fill="#FFECC0"/>
<path d="M99.4772 103.375C108.66 94.9943 114.989 83.9499 117.578 71.7905C120.167 59.631 118.886 46.9661 113.915 35.5713L72.7852 62.2634L99.4772 103.375Z" fill="#FFECC0"/>
<path d="M86.1584 127.288C86.8261 128.208 87.4939 129.092 88.1797 130.013L90.598 125.14L56.5787 72.8027L15.4668 99.4948L18.6612 103.267L27.4322 99.2602C40.3541 108.284 57.445 112.128 72.4243 108.825L86.1584 127.288ZM65.6926 101.065H64.9707H64.2128V101.281V101.083H63.4548V101.209L63.2743 97.5998H62.4983C62.4983 98.791 62.4983 99.9821 62.4983 101.209H61.7764H61.0003H60.2243H59.4663V101.39V99.4226H58.6903L58.5278 101.227H57.824H57.0479V101.372V101.065H56.2719H55.5139V101.191L55.9651 97.5818H55.1891L54.6657 101.101L53.9618 100.993L53.2039 100.884V101.065V100.866L52.4459 100.74L51.6879 100.578V100.686L52.0669 98.8812L51.3089 98.7188C51.1645 99.2963 51.0021 99.8738 50.8577 100.524L50.1899 100.361L50.0997 100.524V100.361L49.3598 100.163L49.2695 100.343V100.145L48.5115 99.964V100.072V99.946L47.7716 99.7475L47.6633 99.9279L48.7642 96.3185L48.0243 96.0838L46.8873 99.4587L46.2195 99.2421L45.4976 98.9714L44.7577 98.7188L44.6674 98.8451V98.6827L43.9456 98.412L43.8553 98.5563V98.448L44.5411 96.7335L43.8192 96.4448L43.0612 98.0691L42.0145 97.4554L41.9062 97.5998V97.4193L41.2024 97.1125V97.2208V97.0945L40.4985 96.7696L39.7947 96.4628L39.6503 96.6253L41.455 93.2865L40.7692 92.9075L39.0728 96.0297L38.405 95.6507L38.2606 95.7951L38.3509 95.6327L37.6831 95.2537V95.1454L36.9973 94.7664V94.8747V94.7303L36.3296 94.3513L36.2393 94.4415V94.3333L36.9251 92.9436L54.7018 81.4113L66.3243 99.2963V100.758L65.6926 101.065Z" fill="#FFECC0"/>
</g>
<defs>
<clipPath id="clip0_226_272">
<rect width="118.86" height="130.013" fill="white"/>
</clipPath>
</defs>
</svg>
