<svg width="135" height="148" viewBox="0 0 135 148" fill="none" xmlns="http://www.w3.org/2000/svg">
<g clip-path="url(#clip0_226_271)">
<path d="M54.0746 65.5963L27.3825 24.4844C18.2002 32.8654 11.8708 43.9097 9.28157 56.0692C6.69238 68.2287 7.97326 80.8935 12.9446 92.2884L54.0746 65.5963Z" fill="#FFECC0"/>
<path d="M111.375 28.3825C102.994 19.2002 91.9499 12.8708 79.7905 10.2816C67.631 7.69238 54.9661 8.97326 43.5713 13.9446L70.2634 55.0746L111.375 28.3825Z" fill="#FFECC0"/>
<path d="M107.477 112.375C116.66 103.994 122.989 92.9499 125.578 80.7905C128.167 68.631 126.886 55.9661 121.915 44.5713L80.7852 71.2634L107.477 112.375Z" fill="#FFECC0"/>
<path d="M94.1584 136.288C94.8261 137.208 95.4939 138.092 96.1797 139.013L98.598 134.14L64.5787 81.8027L23.4668 108.495L26.6612 112.267L35.4322 108.26C48.3541 117.284 65.445 121.128 80.4243 117.825L94.1584 136.288ZM73.6926 110.065H72.9707H72.2128V110.281V110.083H71.4548V110.209L71.2743 106.6H70.4983C70.4983 107.791 70.4983 108.982 70.4983 110.209H69.7764H69.0003H68.2243H67.4663V110.39V108.423H66.6903L66.5278 110.227H65.824H65.0479V110.372V110.065H64.2719H63.5139V110.191L63.9651 106.582H63.1891L62.6657 110.101L61.9618 109.993L61.2039 109.884V110.065V109.866L60.4459 109.74L59.6879 109.578V109.686L60.0669 107.881L59.3089 107.719C59.1645 108.296 59.0021 108.874 58.8577 109.524L58.1899 109.361L58.0997 109.524V109.361L57.3598 109.163L57.2695 109.343V109.145L56.5115 108.964V109.072V108.946L55.7716 108.747L55.6633 108.928L56.7642 105.318L56.0243 105.084L54.8873 108.459L54.2195 108.242L53.4976 107.971L52.7577 107.719L52.6674 107.845V107.683L51.9456 107.412L51.8553 107.556V107.448L52.5411 105.734L51.8192 105.445L51.0612 107.069L50.0145 106.455L49.9062 106.6V106.419L49.2024 106.113V106.221V106.094L48.4985 105.77L47.7947 105.463L47.6503 105.625L49.455 102.287L48.7692 101.908L47.0728 105.03L46.405 104.651L46.2606 104.795L46.3509 104.633L45.6831 104.254V104.145L44.9973 103.766V103.875V103.73L44.3296 103.351L44.2393 103.442V103.333L44.9251 101.944L62.7018 90.4113L74.3243 108.296V109.758L73.6926 110.065Z" fill="#FFECC0"/>
</g>
<g clip-path="url(#clip1_226_271)">
<path d="M52.3315 64.2814L22.0149 17.5869C11.5857 27.1059 4.39675 39.65 1.45598 53.4606C-1.48479 67.2712 -0.0299852 81.6559 5.61645 94.598L52.3315 64.2814Z" fill="#21100B"/>
<path d="M117.412 22.0149C107.893 11.5857 95.3493 4.39675 81.5387 1.45598C67.7281 -1.48479 53.3435 -0.0299852 40.4014 5.61645L70.7179 52.3315L117.412 22.0149Z" fill="#21100B"/>
<path d="M112.986 117.412C123.415 107.893 130.604 95.3493 133.544 81.5387C136.485 67.7281 135.03 53.3435 129.384 40.4014L82.6689 70.718L112.986 117.412Z" fill="#21100B"/>
<path d="M97.8572 144.573C98.6156 145.618 99.374 146.623 100.153 147.668L102.9 142.134L64.2609 82.6895L17.5664 113.006L21.1946 117.29L31.1566 112.74C45.8332 122.989 65.2448 127.355 82.2582 123.604L97.8572 144.573ZM74.6124 114.789H73.7925H72.9316V115.035V114.81H72.0707V114.953L71.8657 110.854H70.9843C70.9843 112.207 70.9843 113.559 70.9843 114.953H70.1643H69.2829H68.4015H67.5406V115.158V112.924H66.6592L66.4747 114.974H65.6753H64.7939V115.138V114.789H63.9124H63.0515V114.933L63.564 110.833H62.6826L62.0881 114.83L61.2887 114.707L60.4278 114.584V114.789V114.564L59.5669 114.42L58.7059 114.236V114.359L59.1364 112.309L58.2755 112.125C58.1115 112.781 57.927 113.436 57.763 114.174L57.0046 113.99L56.9021 114.174V113.99L56.0617 113.764L55.9592 113.969V113.744L55.0983 113.539V113.662V113.518L54.2579 113.293L54.1349 113.498L55.3853 109.398L54.5448 109.132L53.2535 112.965L52.495 112.719L51.6751 112.412L50.8347 112.125L50.7322 112.268V112.084L49.9123 111.776L49.8098 111.94V111.817L50.5887 109.87L49.7688 109.542L48.9079 111.387L47.719 110.69L47.596 110.854V110.649L46.7966 110.3V110.423V110.28L45.9972 109.911L45.1977 109.562L45.0338 109.747L47.0836 105.955L46.3046 105.524L44.3778 109.07L43.6194 108.64L43.4554 108.804L43.5579 108.619L42.7995 108.189V108.066L42.0206 107.636V107.759V107.595L41.2621 107.164L41.1596 107.267V107.144L41.9386 105.565L62.1291 92.467L75.3298 112.781V114.441L74.6124 114.789Z" fill="#21100B"/>
</g>
<defs>
<clipPath id="clip0_226_271">
<rect width="118.86" height="130.013" fill="white" transform="translate(8 9)"/>
</clipPath>
<clipPath id="clip1_226_271">
<rect width="135" height="147.668" fill="white"/>
</clipPath>
</defs>
</svg>
