<svg width="113" height="113" viewBox="0 0 113 113" fill="none" xmlns="http://www.w3.org/2000/svg">
<g clip-path="url(#clip0_1403_2067)">
<path d="M69.9398 31.3601L55.1498 8.58008C50.0619 13.224 46.5548 19.3436 45.1201 26.0811C43.6855 32.8187 44.3952 39.8362 47.1498 46.1501L69.9398 31.3601Z" fill="#FFECC0"/>
<path d="M101.69 10.7397C97.0462 5.65175 90.9266 2.14463 84.1891 0.709969C77.4515 -0.724692 70.434 -0.0149605 64.1201 2.73966L78.9101 25.5297L101.69 10.7397Z" fill="#FFECC0"/>
<path d="M99.5302 57.28C104.618 52.6361 108.125 46.5164 109.56 39.7789C110.995 33.0414 110.285 26.0238 107.53 19.71L84.7402 34.5L99.5302 57.28Z" fill="#FFECC0"/>
<path d="M21.7996 86.7896H21.8496V88.1696H24.5496V78.8296C24.5582 78.205 24.4497 77.5843 24.2296 76.9996C24.0399 76.5059 23.7506 76.0566 23.3796 75.6796C23.0088 75.3276 22.5698 75.0553 22.0896 74.8796C21.5775 74.706 21.0403 74.6181 20.4996 74.6196C19.9288 74.6113 19.3618 74.7132 18.8296 74.9196C18.3564 75.1157 17.9253 75.4009 17.5596 75.7596C16.8034 76.5421 16.3711 77.5816 16.3496 78.6696H18.9996C19.0643 78.279 19.2664 77.9243 19.5696 77.6696C19.8529 77.4427 20.2067 77.3224 20.5696 77.3296C20.77 77.3078 20.9727 77.3377 21.1582 77.4165C21.3438 77.4953 21.5061 77.6203 21.6296 77.7796C21.8329 78.1242 21.9335 78.5197 21.9196 78.9196V80.3196H21.5196C21.4132 80.3309 21.306 80.3309 21.1996 80.3196H20.9096H20.6196C19.9124 80.2989 19.2065 80.3935 18.5296 80.5996C18.031 80.7513 17.5843 81.0387 17.2396 81.4296C16.889 81.8419 16.6512 82.338 16.5496 82.8696C16.4177 83.528 16.354 84.1982 16.3596 84.8696C16.3427 85.4849 16.4376 86.0982 16.6396 86.6796C16.7899 87.0916 17.0409 87.4594 17.3696 87.7496C17.6359 88.0013 17.958 88.1864 18.3096 88.2896C18.6331 88.3915 18.9705 88.4421 19.3096 88.4396C19.8461 88.4732 20.3791 88.3329 20.8296 88.0396C21.2203 87.6798 21.5481 87.2574 21.7996 86.7896ZM19.3596 85.4696C19.1058 85.1074 18.9792 84.6714 18.9996 84.2296C18.9688 83.9476 19.0094 83.6624 19.1177 83.4003C19.2261 83.1382 19.3987 82.9075 19.6196 82.7296C20.0691 82.4499 20.5904 82.3074 21.1196 82.3196C21.368 82.3272 21.6154 82.3539 21.8596 82.3996V84.2296C21.8876 84.6862 21.749 85.1374 21.4696 85.4996C21.3373 85.6512 21.1722 85.7705 20.9867 85.8485C20.8013 85.9265 20.6005 85.9611 20.3996 85.9496C20.2003 85.96 20.0015 85.9217 19.8203 85.8381C19.6391 85.7544 19.481 85.628 19.3596 85.4696Z" fill="#FFECC0"/>
<path d="M30.0498 85.7901C29.8481 85.8088 29.6451 85.7742 29.4608 85.69C29.2766 85.6058 29.1177 85.4748 28.9998 85.3101C28.7998 85.0085 28.6668 84.6675 28.6098 84.3101H26.0498C26.0632 84.892 26.1888 85.4659 26.4198 86.0001C26.7316 86.7015 27.2454 87.2939 27.8955 87.7018C28.5457 88.1097 29.3027 88.3145 30.0698 88.2901C30.6238 88.3037 31.1749 88.205 31.6898 88.0001C32.1804 87.8055 32.6262 87.5129 32.9998 87.1401C33.3521 86.7676 33.6334 86.3338 33.8298 85.8601C34.0326 85.3583 34.1346 84.8214 34.1298 84.2801C34.1343 83.5141 33.9414 82.7599 33.5698 82.0901C33.0804 81.3363 32.3456 80.7746 31.4898 80.5001L29.8998 79.8601C29.5197 79.7609 29.1846 79.5351 28.9498 79.2201C28.8299 78.9951 28.7648 78.745 28.7598 78.4901C28.7582 78.1446 28.8827 77.8104 29.1098 77.5501C29.2333 77.409 29.3879 77.2984 29.5615 77.2273C29.735 77.1561 29.9227 77.1263 30.1098 77.1401C30.4538 77.1367 30.7876 77.2574 31.0498 77.4801C31.1875 77.6074 31.2969 77.7622 31.3709 77.9345C31.445 78.1068 31.4821 78.2926 31.4798 78.4801H33.9998C33.9807 77.9708 33.8689 77.4693 33.6698 77.0001C33.4909 76.5328 33.2225 76.1048 32.8798 75.7401C32.5359 75.388 32.1243 75.1091 31.6698 74.9201C31.1868 74.7254 30.6705 74.6269 30.1498 74.6301C29.6266 74.6245 29.1071 74.7195 28.6198 74.9101C28.1535 75.084 27.7304 75.3569 27.3798 75.7101C26.9948 76.0746 26.69 76.5155 26.4851 77.0045C26.2802 77.4936 26.1796 78.02 26.1898 78.5501C26.1654 79.3696 26.4192 80.1732 26.9098 80.8301C27.4295 81.4823 28.1228 81.9745 28.9098 82.2501L30.2098 82.7201C30.6164 82.8496 30.9796 83.0883 31.2598 83.4101C31.4732 83.6984 31.5793 84.052 31.5598 84.4101C31.5704 84.6128 31.5334 84.8151 31.4518 85.0009C31.3702 85.1867 31.2462 85.3508 31.0898 85.4801C30.7906 85.703 30.4222 85.8128 30.0498 85.7901Z" fill="#FFECC0"/>
<path d="M48.9999 88.1701V78.8301C49.0213 78.208 48.9264 77.5874 48.7199 77.0001C48.5335 76.5071 48.2476 76.0578 47.8799 75.6801C47.5055 75.3278 47.0632 75.0556 46.5799 74.8801C46.0726 74.6991 45.5386 74.6045 44.9999 74.6001C44.4324 74.5916 43.8686 74.6935 43.3399 74.9001C42.8637 75.0906 42.4316 75.3764 42.0699 75.7401C41.3101 76.521 40.8741 77.5608 40.8499 78.6501H43.4699C43.5346 78.2595 43.7368 77.9048 44.0399 77.6501C44.321 77.4193 44.6764 77.2984 45.0399 77.3101C45.2405 77.2863 45.4438 77.3154 45.6297 77.3943C45.8156 77.4732 45.9777 77.5993 46.0999 77.7601C46.3032 78.1047 46.4038 78.5002 46.3899 78.9001V80.3001H45.9899C45.887 80.312 45.7829 80.312 45.6799 80.3001H45.3899H44.9999C44.2959 80.2785 43.5932 80.3731 42.9199 80.5801C42.4183 80.7316 41.9684 81.0188 41.6199 81.4101C41.3079 81.8038 41.0953 82.2669 40.9999 82.7601C40.8718 83.4189 40.8115 84.089 40.8199 84.7601C40.8005 85.3748 40.892 85.9879 41.0899 86.5701C41.2403 86.9821 41.4912 87.3499 41.8199 87.6401C42.0862 87.8918 42.4084 88.0769 42.7599 88.1801C43.0837 88.2809 43.4209 88.3315 43.7599 88.3301C44.2964 88.3637 44.8295 88.2234 45.2799 87.9301C45.6971 87.6118 46.0587 87.2266 46.3499 86.7901H46.3999V88.1701H48.9999ZM45.9999 85.5001C45.8663 85.65 45.7009 85.7681 45.5158 85.846C45.3307 85.9238 45.1305 85.9594 44.9299 85.9501C44.7376 85.9524 44.5472 85.9104 44.3738 85.8271C44.2003 85.7438 44.0484 85.6217 43.9299 85.4701C43.6726 85.1092 43.5425 84.673 43.5599 84.2301C43.5284 83.9471 43.5697 83.6607 43.6799 83.3982C43.7902 83.1357 43.9658 82.9057 44.1899 82.7301C44.6351 82.449 45.1536 82.3063 45.6799 82.3201C45.9283 82.3277 46.1757 82.3544 46.4199 82.4001V84.2301C46.4349 84.6898 46.2861 85.1399 45.9999 85.5001Z" fill="#FFECC0"/>
<path d="M40.2 85.6298C39.91 85.6298 39.65 85.6298 39.45 85.6298C39.2686 85.6238 39.0923 85.5685 38.94 85.4698C38.791 85.3837 38.6803 85.2444 38.63 85.0798C38.5623 84.8392 38.5319 84.5897 38.54 84.3398V76.8699H40.2V74.7598H38.54V71.9998H53.72V69.3398H4.21L0 88.1698H2.7L3.49 84.1698H7.17L7.96 88.1698H10.66L7.06 71.9998H11.67V84.5698C11.6477 85.2207 11.739 85.8704 11.94 86.4898C12.0969 86.9332 12.3781 87.322 12.75 87.6098C13.116 87.908 13.554 88.1046 14.02 88.1798C14.5703 88.2853 15.1297 88.3355 15.69 88.3298V85.7898C15.3269 85.7791 14.9766 85.653 14.69 85.4298C14.4798 85.1409 14.3804 84.786 14.41 84.4298V71.9998H35.84V74.7299H34.49V76.8398H35.84V84.9998C35.8442 85.3727 35.9014 85.7431 36.01 86.0998C36.1273 86.4634 36.3103 86.8024 36.55 87.0998C36.8252 87.4167 37.1666 87.6693 37.55 87.8398C38.0366 88.046 38.5618 88.1449 39.09 88.1298H40.2V85.6298ZM4 81.5798L5.32 74.7598L6.65 81.5798H4Z" fill="#FFECC0"/>
<path d="M53.7195 74.7598H51.0195V88.1698H53.7195V74.7598Z" fill="#FFECC0"/>
<path d="M55.9404 74.76V88.17H58.6404V80.17C58.6249 79.6955 58.7173 79.2237 58.9104 78.79C59.0653 78.442 59.2979 78.1341 59.5904 77.89C59.8494 77.666 60.1527 77.4991 60.4804 77.4C60.7762 77.3133 61.0822 77.2662 61.3904 77.26C61.6717 77.2579 61.9506 77.3123 62.2104 77.42V74.6C61.5193 74.5724 60.8321 74.7167 60.2104 75.02C59.6306 75.3469 59.0904 75.7395 58.6004 76.19V74.76H55.9404Z" fill="#FFECC0"/>
<path d="M74.4501 69.5498C73.87 69.297 73.2427 69.1709 72.6101 69.1798C71.9211 69.1649 71.2376 69.305 70.6101 69.5898C70.0578 69.8413 69.5716 70.2179 69.1901 70.6898C68.7859 71.1678 68.4892 71.7271 68.3201 72.3298C67.8366 73.9807 67.9427 75.7485 68.6201 77.3298C69.1453 78.2247 69.9764 78.8995 70.9601 79.2298L72.8901 80.0198C73.1714 80.1288 73.4425 80.2627 73.7001 80.4198C73.8978 80.5361 74.0656 80.697 74.1901 80.8898C74.3111 81.1297 74.3825 81.3916 74.4001 81.6598C74.4447 82.0649 74.4647 82.4723 74.4601 82.8798C74.4601 83.2998 74.4601 83.6798 74.4601 84.0298C74.4428 84.3393 74.3537 84.6406 74.2001 84.9098C74.0642 85.1541 73.8589 85.3525 73.6101 85.4798C73.2734 85.6275 72.9073 85.6959 72.5401 85.6798C72.2463 85.7109 71.9496 85.6645 71.6794 85.5452C71.4092 85.4259 71.1749 85.2378 71.0001 84.9998C70.7117 84.6166 70.5571 84.1493 70.5601 83.6698V82.8198H67.8501V83.8198C67.8413 84.4246 67.9606 85.0243 68.2001 85.5798C68.4389 86.1101 68.7785 86.589 69.2001 86.9898C69.6054 87.424 70.1001 87.7651 70.6501 87.9898C71.2317 88.2236 71.8532 88.3425 72.4801 88.3398C73.232 88.3614 73.9795 88.218 74.6701 87.9198C75.2455 87.6558 75.747 87.2539 76.1301 86.7498C76.4945 86.2236 76.7465 85.6278 76.8701 84.9998C77.0264 84.2736 77.1035 83.5326 77.1001 82.7898C77.1038 82.1916 77.0704 81.5938 77.0001 80.9998C76.9387 80.5026 76.8039 80.0173 76.6001 79.5598C76.3857 79.1477 76.0897 78.7837 75.7301 78.4898C75.2909 78.1419 74.7977 77.8682 74.2701 77.6798L72.2101 76.8598C71.9188 76.7508 71.6404 76.6099 71.3801 76.4398C71.1864 76.3122 71.0254 76.141 70.9101 75.9398C70.805 75.734 70.7404 75.5099 70.7201 75.2798C70.7024 74.97 70.7024 74.6595 70.7201 74.3498C70.7156 74.0445 70.7424 73.7396 70.8001 73.4398C70.8465 73.1638 70.9449 72.8991 71.0901 72.6598C71.2291 72.4423 71.4176 72.2607 71.6401 72.1298C71.9151 71.9785 72.2265 71.9058 72.5401 71.9198C72.8224 71.892 73.107 71.9394 73.3652 72.0571C73.6233 72.1747 73.8458 72.3585 74.0101 72.5898C74.3105 73.0684 74.4635 73.6248 74.4501 74.1898V74.7998H77.1001V73.4398C77.1025 72.8986 76.9967 72.3623 76.7889 71.8626C76.5811 71.3628 76.2755 70.9097 75.8901 70.5298C75.4734 70.1185 74.9855 69.7865 74.4501 69.5498Z" fill="#FFECC0"/>
<path d="M79 74.7596V88.1696H81.7V79.1696C81.6741 78.6922 81.7741 78.2163 81.99 77.7896C82.1031 77.6291 82.2551 77.5 82.4318 77.4143C82.6084 77.3286 82.8039 77.2891 83 77.2996C83.188 77.2854 83.3768 77.316 83.5506 77.3891C83.7245 77.4621 83.8785 77.5754 84 77.7196C84.2467 78.0579 84.367 78.4719 84.34 78.8896V88.1696H87V79.1696C86.9741 78.6922 87.0741 78.2163 87.29 77.7896C87.4099 77.6252 87.571 77.4952 87.7571 77.4127C87.9431 77.3302 88.1476 77.2981 88.35 77.3196C88.538 77.3062 88.7264 77.3372 88.9002 77.4102C89.0739 77.4832 89.228 77.596 89.35 77.7396C89.5967 78.0779 89.717 78.4919 89.69 78.9096V88.1896H92.39V77.8796C92.4027 77.3609 92.3144 76.8446 92.13 76.3596C91.9691 75.9835 91.7345 75.6435 91.44 75.3596C91.1525 75.0986 90.8111 74.9041 90.44 74.7896C90.1166 74.685 89.7798 74.6277 89.44 74.6196C88.8465 74.5844 88.2556 74.7234 87.74 75.0196C87.3286 75.304 86.9556 75.6401 86.63 76.0196C86.3467 75.6598 86.0094 75.3461 85.63 75.0896C85.2007 74.7972 84.689 74.65 84.17 74.6696C83.6336 74.6504 83.1039 74.7933 82.65 75.0796C82.2578 75.3483 81.9187 75.6874 81.65 76.0796H81.59V74.7596H79Z" fill="#FFECC0"/>
<path d="M97.3103 74.7598H94.6104V88.1698H97.3103V74.7598Z" fill="#FFECC0"/>
<path d="M112.76 76.3598C112.62 75.9849 112.402 75.644 112.12 75.3598C111.867 75.1043 111.559 74.9094 111.22 74.7898C110.898 74.68 110.56 74.6226 110.22 74.6198C109.683 74.5994 109.153 74.7424 108.7 75.0298C108.306 75.2965 107.967 75.6359 107.7 76.0298H107.65V69.3398H94.65L75.81 40.3398L53 55.1198L54.76 57.2098L59.62 54.9998C66.77 59.9998 76.25 62.1198 84.55 60.2998L92.15 70.5298C92.53 71.0298 92.9 71.5298 93.27 72.0398H99.53V74.7698H98.18V76.8798H99.53V84.9998C99.5327 85.3736 99.5934 85.7447 99.71 86.0998C99.8195 86.4667 100.003 86.8071 100.25 87.0998C100.524 87.4176 100.866 87.6704 101.25 87.8398C101.74 88.0468 102.269 88.1457 102.8 88.1298H103.91V85.6298C103.61 85.6298 103.36 85.6298 103.15 85.6298C102.969 85.6238 102.792 85.5685 102.64 85.4698C102.496 85.3778 102.387 85.2406 102.33 85.0798C102.262 84.8392 102.232 84.5897 102.24 84.3398V76.8698H103.91V74.7598H102.24V71.9998H104.94V88.1698H107.64V79.1698C107.609 78.692 107.71 78.2149 107.93 77.7898C108.047 77.6186 108.208 77.4824 108.397 77.3961C108.585 77.3098 108.794 77.2765 109 77.2998C109.188 77.2839 109.377 77.3138 109.552 77.387C109.726 77.4601 109.88 77.5743 110 77.7198C110.25 78.0568 110.374 78.4709 110.35 78.8898V88.1698H113V77.8798C113.014 77.3627 112.932 76.8475 112.76 76.3598ZM80.82 55.9998H80.39H79.96H79.53V56.0598L79.42 54.0598H78.99L79.05 56.0598H78.64H78.22H77.7H77.27V56.1598V55.0698H76.85L76.76 56.0698H76.36V56.1598V56.0798H75.94V56.1498V55.9998H75.51H75L75.24 53.9998H74.82C74.72 54.6498 74.63 55.2998 74.53 55.9498L74.13 55.8898L73.7 55.8198L73.28 55.7398L72.86 55.6498V55.7098L73.07 54.7098L72.65 54.6198C72.56 54.9398 72.48 55.2598 72.39 55.6198L72.02 55.5298V55.6298V55.5398L71.61 55.4198L71.55 55.5198V55.4198L71.14 55.3198V55.2598L70.72 55.1398V55.2398L71.32 53.2398L70.91 53.1098C70.71 53.7298 70.5 54.3498 70.29 54.9798L69.92 54.8498V54.9198V54.8598L69.52 54.6998L69.47 54.7698V54.6998L69.07 54.5598V54.6298V54.5498L68.67 54.3998V54.4698V54.4198L69.05 53.4798L68.66 53.3098L68.24 54.2198L67.7 53.9998L67.63 54.0798L67.68 53.9898L67.29 53.8098L67.24 53.8698V53.7998L66.85 53.6298L66.46 53.4498L66.38 53.5398L67.32 51.6998L67 51.4898C66.68 52.0598 66.37 52.6398 66.06 53.2198L65.69 52.9998L65.62 53.0898V52.9898L65.25 52.7798L64.88 52.5698L64.82 52.6298L64.87 52.5498L64.49 52.3398V52.2798C64.61 52.0298 64.74 51.7698 64.87 51.5198L74.71 45.1198L81.15 55.0298C81.15 55.2998 81.15 55.5698 81.15 55.8398L80.82 55.9998Z" fill="#FFECC0"/>
<path d="M26.9999 94.4601C26.5995 94.047 26.1164 93.723 25.5822 93.5093C25.0481 93.2957 24.4748 93.1971 23.8999 93.2201C23.2907 93.2126 22.686 93.3248 22.1199 93.5501C21.5999 93.7564 21.127 94.0659 20.7299 94.4601C20.3386 94.8497 20.0322 95.3162 19.8299 95.8301C19.6154 96.378 19.5068 96.9616 19.5099 97.5501V107.92C19.4837 108.652 19.6239 109.38 19.9199 110.05C20.1527 110.569 20.4937 111.033 20.9199 111.41C21.3338 111.763 21.823 112.016 22.3499 112.15C22.8573 112.295 23.3823 112.369 23.9099 112.37C24.4894 112.373 25.0626 112.25 25.5899 112.01C26.612 111.536 27.4211 110.698 27.8599 109.66C28.0804 109.135 28.1926 108.57 28.1899 108V106.84H25.4899V107.76C25.5009 108.078 25.4464 108.394 25.3299 108.69C25.2481 108.912 25.1144 109.111 24.9399 109.27C24.6174 109.531 24.2147 109.672 23.7999 109.67C23.5562 109.697 23.3097 109.659 23.0851 109.561C22.8605 109.463 22.6656 109.307 22.5199 109.11C22.2688 108.698 22.1436 108.222 22.1599 107.74V98.1101C22.1387 97.5675 22.2521 97.0281 22.4899 96.5401C22.6295 96.3177 22.8299 96.1401 23.0675 96.0284C23.3051 95.9167 23.5697 95.8757 23.8299 95.9101C24.0643 95.9033 24.2968 95.9534 24.5076 96.0561C24.7183 96.1589 24.901 96.3112 25.0399 96.5001C25.3432 96.8913 25.5021 97.3752 25.4899 97.8701V98.7701H28.1899V97.7101C28.1955 97.0913 28.0835 96.4771 27.8599 95.9001C27.6715 95.3678 27.3792 94.8783 26.9999 94.4601Z" fill="#FFECC0"/>
<path d="M35.7596 98.9998C35.2281 98.777 34.6558 98.668 34.0796 98.6798C33.3274 98.6506 32.5821 98.8343 31.9296 99.2098C31.3527 99.5412 30.8785 100.026 30.5596 100.61C30.3601 100.991 30.2281 101.404 30.1696 101.83C30.0949 102.326 30.0581 102.828 30.0596 103.33V107.75C30.0581 108.255 30.0948 108.76 30.1696 109.26C30.2297 109.686 30.3615 110.098 30.5596 110.48C30.8814 111.062 31.3549 111.545 31.9296 111.88C32.5847 112.249 33.3281 112.432 34.0796 112.41C34.6522 112.417 35.2202 112.308 35.7496 112.09C36.4761 111.783 37.0911 111.262 37.5114 110.594C37.9316 109.927 38.137 109.147 38.0996 108.36H35.3996C35.3638 108.677 35.2616 108.984 35.0996 109.26C34.989 109.418 34.8377 109.543 34.6616 109.623C34.4856 109.702 34.2914 109.732 34.0996 109.71C33.9178 109.724 33.7351 109.7 33.563 109.639C33.3908 109.579 33.2331 109.484 33.0996 109.36C32.9704 109.229 32.8712 109.072 32.809 108.9C32.7468 108.727 32.7232 108.543 32.7396 108.36V106.53H38.0996V102.83C38.1418 101.731 37.7626 100.658 37.0396 99.8298C36.6747 99.4679 36.2389 99.1853 35.7596 98.9998ZM35.3996 104.44H32.7596V102.91C32.7283 102.495 32.8571 102.083 33.1196 101.76C33.2465 101.625 33.4025 101.52 33.5757 101.454C33.749 101.388 33.935 101.363 34.1196 101.38C34.3041 101.364 34.4897 101.391 34.6627 101.456C34.8357 101.522 34.9919 101.626 35.1196 101.76C35.3741 102.087 35.4988 102.496 35.4696 102.91L35.3996 104.44Z" fill="#FFECC0"/>
<path d="M42.7801 100.22V98.7996H40.0801V112.21H42.7801V104.21C42.7646 103.735 42.8569 103.263 43.0501 102.83C43.2049 102.481 43.4375 102.174 43.7301 101.93C43.9891 101.706 44.2923 101.539 44.6201 101.44C44.9148 101.348 45.2215 101.301 45.5301 101.3C45.8104 101.298 46.0885 101.349 46.3501 101.45V98.6396C45.6588 98.6098 44.971 98.7542 44.3501 99.0596C43.7831 99.3834 43.2561 99.7727 42.7801 100.22Z" fill="#FFECC0"/>
<path d="M53.9197 99.7002C53.5495 99.3425 53.1059 99.0695 52.6197 98.9002C52.0986 98.7212 51.5506 98.6333 50.9997 98.6402C50.4288 98.6309 49.8616 98.7328 49.3297 98.9402C48.8552 99.1294 48.4234 99.4116 48.0597 99.7702C47.3031 100.553 46.8678 101.592 46.8397 102.68H49.4997C49.5626 102.289 49.7651 101.934 50.0697 101.68C50.3512 101.45 50.7063 101.329 51.0697 101.34C51.2687 101.317 51.4703 101.347 51.6545 101.426C51.8387 101.505 51.999 101.63 52.1197 101.79C52.33 102.129 52.4345 102.522 52.4197 102.92V104.33H52.0197C51.9133 104.342 51.806 104.342 51.6997 104.33H51.4097H51.1197C50.4132 104.311 49.7081 104.402 49.0297 104.6C48.5291 104.759 48.0802 105.049 47.7297 105.44C47.378 105.826 47.1272 106.294 46.9997 106.8C46.8629 107.458 46.7992 108.129 46.8097 108.8C46.7879 109.416 46.8829 110.03 47.0897 110.61C47.2286 110.986 47.4498 111.325 47.7371 111.603C48.0243 111.882 48.3703 112.093 48.7497 112.22C49.0734 112.321 49.4106 112.372 49.7497 112.37C50.2857 112.399 50.8172 112.259 51.2697 111.97C51.6839 111.649 52.045 111.264 52.3397 110.83H52.3997V112.21H55.0897V102.87C55.104 102.24 54.9988 101.612 54.7797 101.02C54.5834 100.528 54.291 100.079 53.9197 99.7002ZM52.3897 108.27C52.4177 108.727 52.2791 109.178 51.9997 109.54C51.8674 109.692 51.7022 109.811 51.5168 109.889C51.3314 109.967 51.1305 110.002 50.9297 109.99C50.737 109.994 50.5462 109.953 50.3725 109.869C50.1988 109.786 50.0471 109.663 49.9297 109.51C49.6723 109.149 49.5422 108.713 49.5597 108.27C49.5279 107.988 49.5681 107.703 49.6765 107.44C49.7849 107.178 49.958 106.948 50.1797 106.77C50.6248 106.489 51.1434 106.346 51.6697 106.36C51.9214 106.368 52.1721 106.394 52.4197 106.44L52.3897 108.27Z" fill="#FFECC0"/>
<path d="M69.5503 99.3801C69.2684 99.1114 68.9251 98.9158 68.5503 98.8101C68.2271 98.7047 67.8902 98.6474 67.5503 98.6401C66.9613 98.6055 66.3747 98.7409 65.8603 99.0301C65.4466 99.3152 65.0703 99.6511 64.7403 100.03C64.4628 99.665 64.1245 99.3504 63.7403 99.1001C63.3144 98.8084 62.8062 98.6612 62.2903 98.6801C61.7531 98.653 61.2211 98.7965 60.7703 99.0901C60.3764 99.3568 60.037 99.6962 59.7703 100.09V98.8001H57.0703V112.21H59.7703V103.21C59.7396 102.732 59.8398 102.255 60.0603 101.83C60.1714 101.671 60.3222 101.544 60.4977 101.462C60.6731 101.379 60.8671 101.344 61.0603 101.36C61.2484 101.346 61.4371 101.376 61.6109 101.45C61.7848 101.523 61.9388 101.636 62.0603 101.78C62.309 102.114 62.4329 102.524 62.4103 102.94V112.23H65.1003V103.23C65.0721 102.751 65.1759 102.274 65.4003 101.85C65.5114 101.691 65.6622 101.564 65.8377 101.482C66.0131 101.399 66.2071 101.364 66.4003 101.38C66.5884 101.366 66.7771 101.396 66.9509 101.47C67.1248 101.543 67.2788 101.656 67.4003 101.8C67.649 102.134 67.7729 102.544 67.7503 102.96V112.25H70.5003V101.92C70.5184 101.401 70.43 100.884 70.2403 100.4C70.0833 100.016 69.8484 99.6687 69.5503 99.3801Z" fill="#FFECC0"/>
<path d="M75.4305 93.3701H72.7305V96.0701H75.4305V93.3701Z" fill="#FFECC0"/>
<path d="M75.4305 98.7998H72.7305V112.21H75.4305V98.7998Z" fill="#FFECC0"/>
<path d="M80.8598 101.72C81.1224 101.477 81.467 101.342 81.8248 101.342C82.1827 101.342 82.5273 101.477 82.7898 101.72C83.0564 102.061 83.185 102.489 83.1498 102.92H85.8498C85.897 101.794 85.5186 100.691 84.7898 99.8304C84.4249 99.4685 83.9891 99.1859 83.5099 99.0004C82.9778 98.7794 82.4059 98.6704 81.8299 98.6804C81.0746 98.6531 80.3267 98.8366 79.6698 99.2104C79.0956 99.5421 78.6248 100.027 78.3098 100.61C78.1026 100.989 77.967 101.403 77.9099 101.83C77.8351 102.327 77.7983 102.828 77.7999 103.33V107.75C77.7983 108.256 77.8351 108.761 77.9099 109.26C77.9686 109.688 78.1041 110.101 78.3098 110.48C78.6277 111.062 79.0978 111.546 79.6698 111.88C80.2538 112.189 80.8975 112.367 81.5569 112.403C82.2162 112.44 82.8756 112.333 83.4898 112.09C83.9698 111.893 84.4026 111.597 84.7599 111.22C85.125 110.842 85.4098 110.393 85.5971 109.902C85.7845 109.41 85.8704 108.886 85.8498 108.36H83.1498C83.1056 108.678 83.0003 108.983 82.8398 109.26C82.7351 109.425 82.5847 109.555 82.407 109.635C82.2294 109.715 82.0322 109.741 81.8398 109.71C81.6581 109.723 81.4757 109.699 81.3038 109.638C81.1319 109.578 80.974 109.484 80.8398 109.36C80.7106 109.23 80.6114 109.073 80.5492 108.9C80.4871 108.727 80.4634 108.543 80.4799 108.36V102.88C80.4515 102.459 80.5877 102.043 80.8598 101.72Z" fill="#FFECC0"/>
<path d="M92.35 104.54L90.77 103.9C90.3695 103.81 90.0145 103.579 89.77 103.25C89.6533 103.028 89.5916 102.781 89.59 102.53C89.5838 102.185 89.7049 101.851 89.93 101.59C90.0525 101.447 90.207 101.336 90.3808 101.265C90.5546 101.193 90.7428 101.164 90.93 101.18C91.2743 101.174 91.6087 101.295 91.87 101.52C92.0085 101.647 92.1191 101.801 92.1948 101.974C92.2706 102.146 92.3098 102.332 92.31 102.52H94.85C94.8526 101.992 94.7507 101.468 94.55 100.98C94.3747 100.511 94.1059 100.082 93.76 99.7197C93.4224 99.3648 93.0134 99.0853 92.56 98.8997C92.0782 98.7012 91.5611 98.6025 91.04 98.6097C90.5135 98.6041 89.9908 98.6991 89.5 98.8897C89.0349 99.0661 88.6124 99.3387 88.26 99.6897C87.8884 100.047 87.5925 100.476 87.39 100.95C87.1712 101.444 87.062 101.979 87.07 102.52C87.043 103.344 87.3008 104.153 87.8 104.81C88.3186 105.463 89.0122 105.956 89.8 106.23L91.1 106.7C91.508 106.832 91.8738 107.07 92.16 107.39C92.3669 107.681 92.4691 108.033 92.45 108.39C92.4595 108.591 92.4231 108.792 92.3434 108.978C92.2637 109.163 92.1428 109.328 91.99 109.46C91.712 109.702 91.3585 109.84 90.99 109.85C90.7851 109.872 90.5779 109.839 90.3899 109.755C90.2018 109.671 90.0396 109.538 89.92 109.37C89.7246 109.067 89.5951 108.726 89.54 108.37H87C86.9991 108.976 87.1251 109.575 87.37 110.13C87.5803 110.604 87.8867 111.03 88.27 111.38C89.0205 112.06 90.0078 112.419 91.02 112.38C91.5729 112.384 92.1207 112.275 92.63 112.06C93.1085 111.86 93.5408 111.564 93.9 111.19C94.2546 110.815 94.5361 110.378 94.73 109.9C94.941 109.404 95.0466 108.869 95.04 108.33C95.0459 107.559 94.8494 106.801 94.47 106.13C93.977 105.363 93.2246 104.798 92.35 104.54Z" fill="#FFECC0"/>
</g>
<defs>
<clipPath id="clip0_1403_2067">
<rect width="113" height="112.37" fill="white"/>
</clipPath>
</defs>
</svg>
